<svg width="24" height="24" viewBox="0 0 24 24" fill="none" xmlns="http://www.w3.org/2000/svg">
<path fill-rule="evenodd" clip-rule="evenodd" d="M18 1.99983C20.2091 1.99983 22.0002 3.79086 22.0002 6V18C22.0002 20.2091 20.2091 22.0002 18 22.0002H5.99999C3.79085 22.0002 1.99982 20.2091 1.99982 18V6C1.99982 3.79086 3.79085 1.99983 5.99999 1.99983H18ZM9.39129 20.41H18C18.6392 20.41 19.2523 20.1563 19.7043 19.7043C20.1563 19.2523 20.41 18.6392 20.41 18V6C20.41 5.36083 20.1563 4.74765 19.7043 4.29568C19.2523 3.84372 18.6392 3.59001 18 3.59001H9.39129V20.41ZM5.99999 3.59001C4.66898 3.59001 3.59 4.66899 3.59 6V18C3.59 18.6392 3.84371 19.2523 4.29567 19.7043C4.74764 20.1563 5.36082 20.41 5.99999 20.41H7.82607V3.59001H5.99999Z" fill="#75758A"/>
</svg>
